<svg width="204" height="205" viewBox="0 0 204 205" fill="none" xmlns="http://www.w3.org/2000/svg">
<rect y="0.5" width="204" height="204" rx="100" fill="#EFF6FF"/>
<g clip-path="url(#clip0_1317_45158)">
<path d="M77.625 57.5C79.3828 57.5 80.8867 57.6758 82.1367 58.0273C83.3867 58.3789 84.5195 58.8477 85.5352 59.4336C86.5508 60.0195 87.4492 60.625 88.2305 61.25C89.0117 61.875 89.793 62.4805 90.5742 63.0664C91.3555 63.6523 92.2148 64.1016 93.1523 64.4141C94.0898 64.7266 95.1641 64.9219 96.375 65H154.5C155.555 65 156.531 65.1953 157.43 65.5859C158.328 65.9766 159.109 66.5039 159.773 67.168C160.438 67.832 160.984 68.6328 161.414 69.5703C161.844 70.5078 162.039 71.4844 162 72.5V125H154.5V72.5H96.375C95.1641 72.5 94.1094 72.6758 93.2109 73.0273C92.3125 73.3789 91.4531 73.8477 90.6328 74.4336C89.8125 75.0195 89.0117 75.625 88.2305 76.25C87.4492 76.875 86.5703 77.4805 85.5938 78.0664C84.6172 78.6523 83.4844 79.1016 82.1953 79.4141C80.9063 79.7266 79.3828 79.9219 77.625 80H49.5V140H109.5V147.5H42V65C42 63.9453 42.1953 62.9688 42.5859 62.0703C42.9766 61.1719 43.5039 60.3906 44.168 59.7266C44.832 59.0625 45.6328 58.5156 46.5703 58.0859C47.5078 57.6562 48.4844 57.4609 49.5 57.5H77.625ZM77.625 72.5C78.5625 72.5 79.3828 72.4219 80.0859 72.2656C80.7891 72.1094 81.4336 71.8555 82.0195 71.5039C82.6055 71.1523 83.1719 70.7617 83.7188 70.332C84.2656 69.9023 84.8906 69.375 85.5938 68.75C84.9297 68.1641 84.3242 67.6562 83.7773 67.2266C83.2305 66.7969 82.6445 66.4062 82.0195 66.0547C81.3945 65.7031 80.75 65.4492 80.0859 65.293C79.4219 65.1367 78.6016 65.0391 77.625 65H49.5V72.5H77.625ZM147 140H162V147.5H147V162.5H139.5V147.5H124.5V140H139.5V125H147V140ZM127.137 97.6367L102 122.832L76.8633 97.6367L82.1367 92.3633L102 112.168L121.863 92.3633L127.137 97.6367Z" fill="#3752E9"/>
</g>
<defs>
<clipPath id="clip0_1317_45158">
<rect width="120" height="120" fill="white" transform="translate(42 42.5)"/>
</clipPath>
</defs>
</svg>
