<svg width="350" height="23" viewBox="0 0 350 23" fill="none" xmlns="http://www.w3.org/2000/svg">
<line y1="11.25" x2="150.5" y2="11.25" stroke="#737373" stroke-width="0.5"/>
<path d="M161.607 10.82C161.607 9.76667 161.747 8.78 162.027 7.86C162.32 6.94 162.747 6.14 163.307 5.46C163.867 4.76667 164.56 4.22 165.387 3.82C166.214 3.42 167.167 3.22 168.247 3.22C169.367 3.22 170.347 3.42 171.187 3.82C172.04 4.20667 172.747 4.74667 173.307 5.44C173.88 6.12 174.307 6.92667 174.587 7.86C174.88 8.78 175.027 9.76667 175.027 10.82C175.027 11.86 174.88 12.84 174.587 13.76C174.307 14.6667 173.887 15.4667 173.327 16.16C172.767 16.84 172.067 17.38 171.227 17.78C170.387 18.18 169.414 18.38 168.307 18.38C167.2 18.38 166.227 18.18 165.387 17.78C164.547 17.38 163.847 16.84 163.287 16.16C162.727 15.4667 162.307 14.6667 162.027 13.76C161.747 12.84 161.607 11.86 161.607 10.82ZM168.327 17.22C169.26 17.22 170.06 17.0467 170.727 16.7C171.407 16.34 171.96 15.8667 172.387 15.28C172.827 14.6933 173.147 14.0133 173.347 13.24C173.56 12.4667 173.667 11.66 173.667 10.82C173.667 9.82 173.54 8.92667 173.287 8.14C173.047 7.34 172.694 6.66 172.227 6.1C171.76 5.54 171.194 5.11333 170.527 4.82C169.86 4.52667 169.114 4.38 168.287 4.38C167.367 4.38 166.567 4.56 165.887 4.92C165.22 5.28 164.667 5.76 164.227 6.36C163.8 6.94667 163.48 7.62667 163.267 8.4C163.067 9.17333 162.967 9.98 162.967 10.82C162.967 11.6733 163.067 12.4867 163.267 13.26C163.48 14.0333 163.8 14.7133 164.227 15.3C164.667 15.8867 165.22 16.3533 165.887 16.7C166.567 17.0467 167.38 17.22 168.327 17.22ZM183.313 10.3C183.82 10.3 184.287 10.2467 184.713 10.14C185.153 10.0333 185.533 9.86667 185.853 9.64C186.173 9.4 186.427 9.1 186.613 8.74C186.8 8.38 186.893 7.94667 186.893 7.44C186.893 6.90667 186.793 6.46667 186.593 6.12C186.407 5.77333 186.147 5.5 185.813 5.3C185.493 5.1 185.12 4.96 184.693 4.88C184.28 4.8 183.847 4.76 183.393 4.76H179.073V10.3H183.313ZM179.073 11.46V18H177.713V3.6H183.353C184.94 3.6 186.153 3.9 186.993 4.5C187.833 5.08667 188.253 6.04667 188.253 7.38C188.253 8.28667 188.067 9.00667 187.693 9.54C187.333 10.0733 186.74 10.5267 185.913 10.9C186.34 11.0467 186.673 11.26 186.913 11.54C187.153 11.82 187.333 12.14 187.453 12.5C187.573 12.86 187.647 13.24 187.673 13.64C187.713 14.04 187.74 14.4267 187.753 14.8C187.767 15.3467 187.787 15.8 187.813 16.16C187.853 16.52 187.893 16.8133 187.933 17.04C187.987 17.2667 188.047 17.4467 188.113 17.58C188.18 17.7 188.26 17.7933 188.353 17.86V18H186.853C186.707 17.76 186.6 17.4267 186.533 17C186.48 16.5733 186.433 16.1267 186.393 15.66C186.367 15.1933 186.34 14.74 186.313 14.3C186.3 13.86 186.267 13.5 186.213 13.22C186.133 12.8333 186 12.5267 185.813 12.3C185.64 12.06 185.427 11.88 185.173 11.76C184.92 11.64 184.633 11.56 184.313 11.52C184.007 11.48 183.687 11.46 183.353 11.46H179.073Z" fill="#737373"/>
<line x1="199.5" y1="11.25" x2="350" y2="11.25" stroke="#737373" stroke-width="0.5"/>
</svg>
